<?xml version="1.0" encoding="iso-8859-1"?>
<!-- Generator: Adobe Illustrator 19.0.0, SVG Export Plug-In . SVG Version: 6.00 Build 0)  -->
<svg version="1.1" id="Layer_1" xmlns="http://www.w3.org/2000/svg" xmlns:xlink="http://www.w3.org/1999/xlink" x="0px" y="0px"
	 viewBox="0 0 511.992 511.992" style="enable-background:new 0 0 511.992 511.992;" xml:space="preserve">
<g>
	<path style="fill:#AAB2BC;" d="M159.997,213.332c-5.891,0-10.672-4.781-10.672-10.671V95.999c0-5.891,4.781-10.664,10.672-10.664
		s10.671,4.773,10.671,10.664v106.662C170.669,208.552,165.888,213.332,159.997,213.332z"/>
	<path style="fill:#AAB2BC;" d="M351.994,213.332c-5.891,0-10.672-4.781-10.672-10.671V95.999c0-5.891,4.781-10.664,10.672-10.664
		s10.672,4.773,10.672,10.664v106.662C362.666,208.552,357.885,213.332,351.994,213.332z"/>
	<path style="fill:#AAB2BC;" d="M138.669,458.648c-5.891,0-10.671-4.766-10.671-10.656v-74.654c0-5.906,4.781-10.688,10.671-10.688
		s10.656,4.781,10.656,10.688v74.654C149.326,453.883,144.56,458.648,138.669,458.648z"/>
	<path style="fill:#AAB2BC;" d="M373.322,458.648c-5.891,0-10.656-4.766-10.656-10.656v-74.654c0-5.906,4.766-10.688,10.656-10.688
		c5.889,0,10.67,4.781,10.67,10.688v74.654C383.992,453.883,379.211,458.648,373.322,458.648z"/>
</g>
<g>
	<path style="fill:#CCD1D9;" d="M74.671,511.992c-5.891,0-10.672-4.781-10.672-10.656V245.332c0-5.891,4.781-10.672,10.672-10.672
		s10.656,4.781,10.656,10.672v256.004C85.327,507.211,80.561,511.992,74.671,511.992z"/>
	<path style="fill:#CCD1D9;" d="M437.32,511.992c-5.891,0-10.656-4.781-10.656-10.656V245.332c0-5.891,4.766-10.672,10.656-10.672
		s10.672,4.781,10.672,10.672v256.004C447.992,507.211,443.211,511.992,437.32,511.992z"/>
</g>
<g>
	<path style="fill:#E6E9ED;" d="M95.998,511.992h-42.67c-5.891,0-10.656-4.781-10.656-10.656c0-5.906,4.766-10.688,10.656-10.688
		h42.67c5.891,0,10.672,4.781,10.672,10.688C106.67,507.211,101.889,511.992,95.998,511.992z"/>
	<path style="fill:#E6E9ED;" d="M458.664,511.992h-42.672c-5.891,0-10.672-4.781-10.672-10.656c0-5.906,4.781-10.688,10.672-10.688
		h42.672c5.891,0,10.656,4.781,10.656,10.688C469.32,507.211,464.555,511.992,458.664,511.992z"/>
</g>
<path style="fill:#434A54;" d="M405.336,170.67c-0.688,0-1.391-0.07-2.109-0.211c-5.766-1.156-9.516-6.773-8.359-12.555
	l21.328-106.662c1.156-5.781,6.781-9.523,12.562-8.367c5.766,1.156,9.516,6.773,8.359,12.547l-21.328,106.67
	C414.773,167.162,410.32,170.67,405.336,170.67z"/>
<path style="fill:#FFD2A6;" d="M351.994,0H159.997c-17.641,0-32,14.352-32,32v42.663c0,17.648,14.359,32,32,32h191.997
	c17.641,0,31.998-14.352,31.998-32V32C383.992,14.352,369.635,0,351.994,0z"/>
<path style="fill:#434A54;" d="M181.325,53.336c0,5.89-4.766,10.664-10.656,10.664s-10.671-4.773-10.671-10.664
	s4.781-10.672,10.671-10.672C176.559,42.664,181.325,47.445,181.325,53.336z"/>
<path style="fill:#965353;" d="M437.32,383.994H74.671c-5.891,0-10.672-4.781-10.672-10.656V245.332
	c0-5.891,4.781-10.672,10.672-10.672H437.32c5.891,0,10.672,4.781,10.672,10.672v128.005
	C447.992,379.213,443.211,383.994,437.32,383.994z"/>
<path style="fill:#434A54;" d="M351.994,53.336c0,5.89-4.781,10.664-10.672,10.664s-10.656-4.774-10.656-10.664
	c0-5.891,4.766-10.672,10.656-10.672S351.994,47.445,351.994,53.336z"/>
<path style="fill:#E6E9ED;" d="M95.998,138.662c-11.78,0-21.327,9.555-21.327,21.336s9.547,21.336,21.327,21.336h127.998v-42.672
	H95.998z"/>
<path style="fill:#CCD1D9;" d="M213.324,149.334c-5.89,0-10.656,4.773-10.656,10.664s4.766,10.664,10.656,10.664h10.672v-21.328
	H213.324z"/>
<path style="fill:#ED5564;" d="M426.664,106.663h-42.672c-5.891,0-10.67,4.781-10.67,10.671v64c0,5.891,4.779,10.664,10.67,10.664
	h42.672c5.891,0,10.656-4.773,10.656-10.664v-64C437.32,111.444,432.555,106.663,426.664,106.663z"/>
<g>
	<path style="fill:#7F4545;" d="M202.668,319.996H63.999v21.344h138.669c5.891,0,10.656-4.781,10.656-10.688
		C213.324,324.777,208.559,319.996,202.668,319.996z"/>
	<path style="fill:#7F4545;" d="M277.324,245.332c0,14.757,6.688,42.664,32,42.664h138.668V266.66H309.324
		c-1.797,0-5.531,0-8.422-8.352c-2.172-6.257-2.234-12.945-2.234-12.976c0-5.891-4.781-10.672-10.672-10.672
		S277.324,239.442,277.324,245.332z"/>
	<path style="fill:#7F4545;" d="M447.992,319.996h-53.328c-5.891,0-10.672,4.781-10.672,10.656c0,5.906,4.781,10.688,10.672,10.688
		h53.328V319.996z"/>
</g>
<path style="fill:#A85D5D;" d="M458.664,191.997H53.328c-5.891,0-10.656,4.773-10.656,10.664v42.671
	c0,5.891,4.766,10.664,10.656,10.664h405.336c5.891,0,10.656-4.773,10.656-10.664v-42.671
	C469.32,196.771,464.555,191.997,458.664,191.997z"/>
<path style="fill:#5D9CEC;" d="M234.668,170.662h-10.672h-10.672h-65.061H95.998c-5.875,0-10.671-4.781-10.671-10.664
	s4.796-10.664,10.671-10.664h52.265h65.061h10.672h10.672c5.891,0,10.656-4.781,10.656-10.672c0-5.89-4.766-10.664-10.656-10.664
	h-10.672H95.998c-17.64,0-31.999,14.351-31.999,32s14.359,32,31.999,32h127.998h10.672c5.891,0,10.656-4.773,10.656-10.664
	S240.558,170.662,234.668,170.662z"/>
<g>
</g>
<g>
</g>
<g>
</g>
<g>
</g>
<g>
</g>
<g>
</g>
<g>
</g>
<g>
</g>
<g>
</g>
<g>
</g>
<g>
</g>
<g>
</g>
<g>
</g>
<g>
</g>
<g>
</g>
</svg>
